<?xml version="1.0" encoding="utf-8"?>
<svg viewBox="0 0 500 500" xmlns="http://www.w3.org/2000/svg">
  <path d="M 376.691 91.872 C 400.982 91.872 420.674 111.564 420.674 135.855 L 420.674 423.027 C 420.674 447.318 400.982 467.01 376.691 467.01 L 193.11 467.01 C 168.819 467.01 149.127 447.318 149.127 423.027 L 149.127 160.791 L 218.046 91.872 L 376.691 91.872 Z" style="stroke: rgb(0, 0, 0); fill: rgb(234, 132, 0);"/>
  <path d="M 306.57 33.011 C 330.861 33.011 350.553 52.703 350.553 76.994 L 350.553 364.166 C 350.553 388.457 330.861 408.149 306.57 408.149 L 122.989 408.149 C 98.698 408.149 79.006 388.457 79.006 364.166 L 79.006 101.93 L 147.925 33.011 Z" style="stroke: rgb(0, 0, 0); fill: rgb(0, 128, 128);"/>
  <g transform="matrix(1, 0, 0, 1, -37.275861, -20.459784)">
    <g transform="matrix(1, 0, 0, 1, 27.072435, 1.177098)">
      <g style="" transform="matrix(1.150588, 0, 0, 1.165414, 23.961887, 22.255243)">
        <path d="M 101.351 126.931 L 137.644 126.931 L 137.644 215.734 L 101.351 215.734 L 101.351 126.931 Z M 137.644 291.024 L 101.351 291.024 L 101.351 250.097 L 137.644 250.097 L 137.644 291.024 Z" style="fill: rgb(255, 255, 0);"/>
      </g>
      <g style="" transform="matrix(1.150588, 0, 0, 1.165414, 151.435715, 22.255243)">
        <path d="M 101.351 126.931 L 137.644 126.931 L 137.644 215.734 L 101.351 215.734 L 101.351 126.931 Z M 137.644 291.024 L 101.351 291.024 L 101.351 250.097 L 137.644 250.097 L 137.644 291.024 Z" style="fill: rgb(255, 255, 0);"/>
      </g>
      <g style="" transform="matrix(-1.150588, 0, 0, -1.165414, 362.683563, 509.345795)">
        <path d="M 101.351 126.931 L 137.644 126.931 L 137.644 215.734 L 101.351 215.734 L 101.351 126.931 Z M 137.644 291.024 L 101.351 291.024 L 101.351 250.097 L 137.644 250.097 L 137.644 291.024 Z" style="fill: rgb(255, 255, 0);"/>
      </g>
    </g>
  </g>
</svg>